<svg id="Layer_1" data-name="Layer 1" xmlns="http://www.w3.org/2000/svg" viewBox="0 0 250 250"><defs><style>.cls-1{fill:#fff;}</style></defs><title>Artboard 1</title><path class="cls-1" d="M149.22,114c-5.28,0-9.58,4.72-9.58,10s4.3,10,9.58,10h27.49c5.28,0,9.58-4.72,9.58-10s-4.3-10-9.58-10Z"/><path class="cls-1" d="M73.41,108H100.9a16.56,16.56,0,0,1,11.74,5h24.72a16.73,16.73,0,0,1,11.86-5h27.49a16,16,0,0,1,15.65,11.64c0-.25,0-.67,0-.92,0-13,6.37-29.66,4.06-34.68a80.86,80.86,0,0,0-142.18-.39C53,88,58.08,105.21,58.35,117.86A16,16,0,0,1,73.41,108Z"/><path class="cls-1" d="M192.93,124.24A16.32,16.32,0,0,1,176.71,140H149.22A15.92,15.92,0,0,1,133,124.16a11.55,11.55,0,0,1,.66-4.16H116.49a11.65,11.65,0,0,1,.66,4.14A15.94,15.94,0,0,1,100.9,140H73.41a16.33,16.33,0,0,1-16.08-14.13c-3.12,11.31-11.78,19.68-4.47,32.25,6.37,12.85,24,31.48,27.82,31.67,2.5.13,5,15.46,7.51,16.94.58.34,5.82.69,10.82,1V194h2v13.8c3,.15,8,.29,11,.4V194h2v14.25c3,.09,8,.16,11,.2V195h2v13.46c3,0,8,0,11,0V195h2v13.46c3,0,8-.13,10-.26V194h2v14.12c6-.28,9.32-.72,10-1.39,3.25-3.1,4.48-15.79,6.55-16,3.26-.31,22.7-19.44,29.36-33C203.9,146,195.3,136.16,192.93,124.24ZM120.26,163.7c-1.56.6-3.45,1-4.68-.44-.83-1-2-1.75-2-3.1s1-2.75,1.47-4c1.42-3.59,2.8-7.21,4.18-10.81.35-.9,3.14-9.55,3.72-9.64a4.19,4.19,0,0,1,1.41.38c0,1.09-.06,2.18-.06,3.27,0,4.82-.13,9.68,0,14.49.06,2,.12,4,.1,6C124.35,162.42,122.34,162.91,120.26,163.7Zm14.78-.44c-1.23,1.48-3.12,1-4.68.44-2.08-.79-4.09-1.29-4.12-3.81,0-2,0-4,.1-6,.13-4.82,0-9.67,0-14.49,0-1.09-.1-2.18-.06-3.27a4.19,4.19,0,0,1,1.41-.38c.58.09,3.37,8.75,3.72,9.64,1.37,3.61,2.76,7.22,4.18,10.81.48,1.23,1.54,2.62,1.47,4S135.86,162.29,135,163.27Z"/><path class="cls-1" d="M73.41,114c-5.28,0-9.58,4.72-9.58,10s4.3,10,9.58,10H100.9c5.28,0,9.58-4.72,9.58-10s-4.3-10-9.58-10Z"/></svg>